cl__1 = 1;
Point(1) = {8.845964945201365e-05, 1, 0, cl__1};
Point(2) = {8.838401887634959e-05, 0.9991450274093039, 0.5360655014742695, cl__1};
Point(3) = {8.815647585110452e-05, 0.9965727469780038, 0.6369478694972058, cl__1};
Point(4) = {8.777503223829846e-05, 0.9922606836229148, 0.7038926908215013, cl__1};
Point(5) = {8.723625648256978e-05, 0.9861700450202719, 0.7548669211475908, cl__1};
Point(6) = {8.65350823849392e-05, 0.9782435598716852, 0.7961120936287274, cl__1};
Point(7) = {8.566450989194763e-05, 0.9684020954482496, 0.830595814088447, cl__1};
Point(8) = {8.461515834946444e-05, 0.9565396073083614, 0.8599764154626888, cl__1};
Point(9) = {8.337460674342719e-05, 0.9425156809902924, 0.8852780581634727, cl__1};
Point(10) = {8.192641133928776e-05, 0.9261444268296593, 0.9071775929626009, cl__1};
Point(11) = {8.02486118641932e-05, 0.9071775929626009, 0.9261444268296593, cl__1};
Point(12) = {7.831138669270015e-05, 0.8852780581634727, 0.9425156809902924, cl__1};
Point(13) = {7.607321224882872e-05, 0.8599764154626889, 0.9565396073083614, cl__1};
Point(14) = {7.347421455057393e-05, 0.8305958140884471, 0.9684020954482496, cl__1};
Point(15) = {7.04237967269059e-05, 0.7961120936287274, 0.9782435598716852, cl__1};
Point(16) = {6.677526322763672e-05, 0.7548669211475908, 0.9861700450202719, cl__1};
Point(17) = {6.226610068190464e-05, 0.7038926908215014, 0.9922606836229148, cl__1};
Point(18) = {5.634418525492978e-05, 0.6369478694972059, 0.9965727469780038, cl__1};
Point(19) = {4.742016634373179e-05, 0.5360655014742696, 0.9991450274093039, cl__1};
Point(20) = {7.82510958117314e-09, 8.845964945201365e-05, 1, cl__1};
Point(21) = {-1, 0.0001051968445189812, 0, cl__1};
Point(22) = {-0.9991450274093039, 0.0001051069041002897, 0.5360655014742695, cl__1};
Point(23) = {-0.9965727469780038, 0.0001048363083156991, 0.6369478694972058, cl__1};
Point(24) = {-0.9922606836229148, 0.0001043826928573778, 0.7038926908215013, cl__1};
Point(25) = {-0.9861700450202719, 0.0001037419768952742, 0.7548669211475908, cl__1};
Point(26) = {-0.9782435598716852, 0.0001029081356695163, 0.7961120936287274, cl__1};
Point(27) = {-0.9684020954482496, 0.0001018728446667251, 0.830595814088447, cl__1};
Point(28) = {-0.9565396073083614, 0.000100624948346265, 0.8599764154626888, cl__1};
Point(29) = {-0.9425156809902924, 9.914967554983747e-05, 0.8852780581634727, cl__1};
Point(30) = {-0.9261444268296593, 9.742747127132062e-05, 0.9071775929626009, cl__1};
Point(31) = {-0.9071775929626009, 9.543222019799034e-05, 0.9261444268296593, cl__1};
Point(32) = {-0.8852780581634727, 9.312845824068843e-05, 0.9425156809902924, cl__1};
Point(33) = {-0.8599764154626889, 9.046680526741926e-05, 0.9565396073083614, cl__1};
Point(34) = {-0.8305958140884471, 8.737605871277898e-05, 0.9684020954482496, cl__1};
Point(35) = {-0.7961120936287274, 8.374848013314183e-05, 0.9782435598716852, cl__1};
Point(36) = {-0.7548669211475908, 7.940961813648515e-05, 0.9861700450202719, cl__1};
Point(37) = {-0.7038926908215014, 7.404728995439679e-05, 0.9922606836229148, cl__1};
Point(38) = {-0.6369478694972059, 6.70049059941939e-05, 0.9965727469780038, cl__1};
Point(39) = {-0.5360655014742696, 5.639239921057842e-05, 0.9991450274093039, cl__1};
Point(40) = {-8.845964945201365e-05, 9.305675989607061e-09, 1, cl__1};
Point(41) = {8.845964945201365e-05, -1, 0, cl__1};
Point(42) = {8.838401887634959e-05, -0.9991450274093039, 0.5360655014742695, cl__1};
Point(43) = {8.815647585110452e-05, -0.9965727469780038, 0.6369478694972058, cl__1};
Point(44) = {8.777503223829846e-05, -0.9922606836229148, 0.7038926908215013, cl__1};
Point(45) = {8.723625648256978e-05, -0.9861700450202719, 0.7548669211475908, cl__1};
Point(46) = {8.65350823849392e-05, -0.9782435598716852, 0.7961120936287274, cl__1};
Point(47) = {8.566450989194763e-05, -0.9684020954482496, 0.830595814088447, cl__1};
Point(48) = {8.461515834946444e-05, -0.9565396073083614, 0.8599764154626888, cl__1};
Point(49) = {8.337460674342719e-05, -0.9425156809902924, 0.8852780581634727, cl__1};
Point(50) = {8.192641133928776e-05, -0.9261444268296593, 0.9071775929626009, cl__1};
Point(51) = {8.02486118641932e-05, -0.9071775929626009, 0.9261444268296593, cl__1};
Point(52) = {7.831138669270015e-05, -0.8852780581634727, 0.9425156809902924, cl__1};
Point(53) = {7.607321224882872e-05, -0.8599764154626889, 0.9565396073083614, cl__1};
Point(54) = {7.347421455057393e-05, -0.8305958140884471, 0.9684020954482496, cl__1};
Point(55) = {7.04237967269059e-05, -0.7961120936287274, 0.9782435598716852, cl__1};
Point(56) = {6.677526322763672e-05, -0.7548669211475908, 0.9861700450202719, cl__1};
Point(57) = {6.226610068190464e-05, -0.7038926908215014, 0.9922606836229148, cl__1};
Point(58) = {5.634418525492978e-05, -0.6369478694972059, 0.9965727469780038, cl__1};
Point(59) = {4.742016634373179e-05, -0.5360655014742696, 0.9991450274093039, cl__1};
Point(60) = {7.82510958117314e-09, -8.845964945201365e-05, 1, cl__1};
Point(61) = {1, 0, 0, cl__1};
Point(62) = {0.9991450274093039, 0, 0.5360655014742695, cl__1};
Point(63) = {0.9965727469780038, 0, 0.6369478694972058, cl__1};
Point(64) = {0.9922606836229148, 0, 0.7038926908215013, cl__1};
Point(65) = {0.9861700450202719, 0, 0.7548669211475908, cl__1};
Point(66) = {0.9782435598716852, 0, 0.7961120936287274, cl__1};
Point(67) = {0.9684020954482496, 0, 0.830595814088447, cl__1};
Point(68) = {0.9565396073083614, 0, 0.8599764154626888, cl__1};
Point(69) = {0.9425156809902924, 0, 0.8852780581634727, cl__1};
Point(70) = {0.9261444268296593, 0, 0.9071775929626009, cl__1};
Point(71) = {0.9071775929626009, 0, 0.9261444268296593, cl__1};
Point(72) = {0.8852780581634727, 0, 0.9425156809902924, cl__1};
Point(73) = {0.8599764154626889, 0, 0.9565396073083614, cl__1};
Point(74) = {0.8305958140884471, 0, 0.9684020954482496, cl__1};
Point(75) = {0.7961120936287274, 0, 0.9782435598716852, cl__1};
Point(76) = {0.7548669211475908, 0, 0.9861700450202719, cl__1};
Point(77) = {0.7038926908215014, 0, 0.9922606836229148, cl__1};
Point(78) = {0.6369478694972059, 0, 0.9965727469780038, cl__1};
Point(79) = {0.5360655014742696, 0, 0.9991450274093039, cl__1};
Point(80) = {8.845964945201365e-05, 0, 1, cl__1};
Point(81) = {8.845964945201365e-05, 1, 0, cl__1};
Point(82) = {-0.5360655014742693, 0.9991450274093039, 0, cl__1};
Point(83) = {-0.6369478694972058, 0.9965727469780038, 0, cl__1};
Point(84) = {-0.7038926908215013, 0.9922606836229148, 0, cl__1};
Point(85) = {-0.7548669211475908, 0.9861700450202719, 0, cl__1};
Point(86) = {-0.7961120936287274, 0.9782435598716852, 0, cl__1};
Point(87) = {-0.8305958140884471, 0.9684020954482496, 0, cl__1};
Point(88) = {-0.8599764154626888, 0.9565396073083614, 0, cl__1};
Point(89) = {-0.8852780581634727, 0.9425156809902924, 0, cl__1};
Point(90) = {-0.9071775929626009, 0.9261444268296594, 0, cl__1};
Point(91) = {-0.9261444268296593, 0.9071775929626009, 0, cl__1};
Point(92) = {-0.9425156809902923, 0.8852780581634728, 0, cl__1};
Point(93) = {-0.9565396073083614, 0.8599764154626888, 0, cl__1};
Point(94) = {-0.9684020954482496, 0.8305958140884471, 0, cl__1};
Point(95) = {-0.9782435598716852, 0.7961120936287275, 0, cl__1};
Point(96) = {-0.9861700450202719, 0.7548669211475909, 0, cl__1};
Point(97) = {-0.9922606836229148, 0.7038926908215012, 0, cl__1};
Point(98) = {-0.9965727469780038, 0.6369478694972059, 0, cl__1};
Point(99) = {-0.9991450274093039, 0.53606550147427, 0, cl__1};
Point(100) = {-1, 0.0001051968445189812, 0, cl__1};
Point(101) = {-1, 0.0001051968445189812, 0, cl__1};
Point(102) = {-0.9991450274093039, -0.5360655014742689, 0, cl__1};
Point(103) = {-0.9965727469780038, -0.6369478694972057, 0, cl__1};
Point(104) = {-0.9922606836229148, -0.7038926908215011, 0, cl__1};
Point(105) = {-0.9861700450202719, -0.7548669211475907, 0, cl__1};
Point(106) = {-0.9782435598716852, -0.7961120936287273, 0, cl__1};
Point(107) = {-0.9684020954482496, -0.830595814088447, 0, cl__1};
Point(108) = {-0.9565396073083614, -0.8599764154626887, 0, cl__1};
Point(109) = {-0.9425156809902924, -0.8852780581634727, 0, cl__1};
Point(110) = {-0.9261444268296594, -0.9071775929626009, 0, cl__1};
Point(111) = {-0.9071775929626009, -0.9261444268296593, 0, cl__1};
Point(112) = {-0.8852780581634728, -0.9425156809902923, 0, cl__1};
Point(113) = {-0.8599764154626889, -0.9565396073083614, 0, cl__1};
Point(114) = {-0.830595814088447, -0.9684020954482497, 0, cl__1};
Point(115) = {-0.7961120936287276, -0.9782435598716852, 0, cl__1};
Point(116) = {-0.7548669211475909, -0.9861700450202719, 0, cl__1};
Point(117) = {-0.7038926908215013, -0.9922606836229148, 0, cl__1};
Point(118) = {-0.6369478694972065, -0.9965727469780038, 0, cl__1};
Point(119) = {-0.5360655014742701, -0.9991450274093039, 0, cl__1};
Point(120) = {-0.0001164194458386823, -1, 0, cl__1};
Point(121) = {-0.0001164194458386823, -1, 0, cl__1};
Point(122) = {0.5360655014742696, -0.9991450274093039, 0, cl__1};
Point(123) = {0.6369478694972053, -0.9965727469780038, 0, cl__1};
Point(124) = {0.7038926908215011, -0.9922606836229148, 0, cl__1};
Point(125) = {0.7548669211475907, -0.9861700450202719, 0, cl__1};
Point(126) = {0.7961120936287274, -0.9782435598716852, 0, cl__1};
Point(127) = {0.8305958140884468, -0.9684020954482497, 0, cl__1};
Point(128) = {0.8599764154626887, -0.9565396073083614, 0, cl__1};
Point(129) = {0.8852780581634727, -0.9425156809902924, 0, cl__1};
Point(130) = {0.907177592962601, -0.9261444268296593, 0, cl__1};
Point(131) = {0.9261444268296591, -0.907177592962601, 0, cl__1};
Point(132) = {0.9425156809902923, -0.8852780581634728, 0, cl__1};
Point(133) = {0.9565396073083614, -0.8599764154626889, 0, cl__1};
Point(134) = {0.9684020954482497, -0.830595814088447, 0, cl__1};
Point(135) = {0.9782435598716852, -0.7961120936287276, 0, cl__1};
Point(136) = {0.9861700450202719, -0.7548669211475909, 0, cl__1};
Point(137) = {0.9922606836229148, -0.7038926908215013, 0, cl__1};
Point(138) = {0.9965727469780037, -0.6369478694972065, 0, cl__1};
Point(139) = {0.9991450274093039, -0.5360655014742702, 0, cl__1};
Point(140) = {1, -0.0001251008359778074, 0, cl__1};
Point(141) = {1, -0.0001251008359778074, 0, cl__1};
Point(142) = {0.9991450274093039, 0.5360655014742695, 0, cl__1};
Point(143) = {0.9965727469780038, 0.6369478694972052, 0, cl__1};
Point(144) = {0.9922606836229148, 0.703892690821501, 0, cl__1};
Point(145) = {0.9861700450202719, 0.7548669211475907, 0, cl__1};
Point(146) = {0.9782435598716852, 0.7961120936287274, 0, cl__1};
Point(147) = {0.9684020954482497, 0.8305958140884467, 0, cl__1};
Point(148) = {0.9565396073083614, 0.8599764154626887, 0, cl__1};
Point(149) = {0.9425156809902924, 0.8852780581634727, 0, cl__1};
Point(150) = {0.9261444268296593, 0.9071775929626009, 0, cl__1};
Point(151) = {0.9071775929626011, 0.9261444268296591, 0, cl__1};
Point(152) = {0.8852780581634729, 0.9425156809902923, 0, cl__1};
Point(153) = {0.8599764154626889, 0.9565396073083614, 0, cl__1};
Point(154) = {0.830595814088447, 0.9684020954482496, 0, cl__1};
Point(155) = {0.7961120936287276, 0.9782435598716851, 0, cl__1};
Point(156) = {0.7548669211475909, 0.9861700450202718, 0, cl__1};
Point(157) = {0.7038926908215014, 0.9922606836229148, 0, cl__1};
Point(158) = {0.6369478694972066, 0.9965727469780037, 0, cl__1};
Point(159) = {0.5360655014742703, 0.9991450274093039, 0, cl__1};
Point(160) = {0.000132278028995325, 1, 0, cl__1};
Point(161) = {8.845964945201365e-05, 1, -0, cl__1};
Point(162) = {8.838401887634959e-05, 0.9991450274093039, -0.5360655014742695, cl__1};
Point(163) = {8.815647585110452e-05, 0.9965727469780038, -0.6369478694972058, cl__1};
Point(164) = {8.777503223829846e-05, 0.9922606836229148, -0.7038926908215013, cl__1};
Point(165) = {8.723625648256978e-05, 0.9861700450202719, -0.7548669211475908, cl__1};
Point(166) = {8.65350823849392e-05, 0.9782435598716852, -0.7961120936287274, cl__1};
Point(167) = {8.566450989194763e-05, 0.9684020954482496, -0.830595814088447, cl__1};
Point(168) = {8.461515834946444e-05, 0.9565396073083614, -0.8599764154626888, cl__1};
Point(169) = {8.337460674342719e-05, 0.9425156809902924, -0.8852780581634727, cl__1};
Point(170) = {8.192641133928776e-05, 0.9261444268296593, -0.9071775929626009, cl__1};
Point(171) = {8.02486118641932e-05, 0.9071775929626009, -0.9261444268296593, cl__1};
Point(172) = {7.831138669270015e-05, 0.8852780581634727, -0.9425156809902924, cl__1};
Point(173) = {7.607321224882872e-05, 0.8599764154626889, -0.9565396073083614, cl__1};
Point(174) = {7.347421455057393e-05, 0.8305958140884471, -0.9684020954482496, cl__1};
Point(175) = {7.04237967269059e-05, 0.7961120936287274, -0.9782435598716852, cl__1};
Point(176) = {6.677526322763672e-05, 0.7548669211475908, -0.9861700450202719, cl__1};
Point(177) = {6.226610068190464e-05, 0.7038926908215014, -0.9922606836229148, cl__1};
Point(178) = {5.634418525492978e-05, 0.6369478694972059, -0.9965727469780038, cl__1};
Point(179) = {4.742016634373179e-05, 0.5360655014742696, -0.9991450274093039, cl__1};
Point(180) = {7.82510958117314e-09, 8.845964945201365e-05, -1, cl__1};
Point(181) = {-1, 0.0001051968445189812, -0, cl__1};
Point(182) = {-0.9991450274093039, 0.0001051069041002897, -0.5360655014742695, cl__1};
Point(183) = {-0.9965727469780038, 0.0001048363083156991, -0.6369478694972058, cl__1};
Point(184) = {-0.9922606836229148, 0.0001043826928573778, -0.7038926908215013, cl__1};
Point(185) = {-0.9861700450202719, 0.0001037419768952742, -0.7548669211475908, cl__1};
Point(186) = {-0.9782435598716852, 0.0001029081356695163, -0.7961120936287274, cl__1};
Point(187) = {-0.9684020954482496, 0.0001018728446667251, -0.830595814088447, cl__1};
Point(188) = {-0.9565396073083614, 0.000100624948346265, -0.8599764154626888, cl__1};
Point(189) = {-0.9425156809902924, 9.914967554983747e-05, -0.8852780581634727, cl__1};
Point(190) = {-0.9261444268296593, 9.742747127132062e-05, -0.9071775929626009, cl__1};
Point(191) = {-0.9071775929626009, 9.543222019799034e-05, -0.9261444268296593, cl__1};
Point(192) = {-0.8852780581634727, 9.312845824068843e-05, -0.9425156809902924, cl__1};
Point(193) = {-0.8599764154626889, 9.046680526741926e-05, -0.9565396073083614, cl__1};
Point(194) = {-0.8305958140884471, 8.737605871277898e-05, -0.9684020954482496, cl__1};
Point(195) = {-0.7961120936287274, 8.374848013314183e-05, -0.9782435598716852, cl__1};
Point(196) = {-0.7548669211475908, 7.940961813648515e-05, -0.9861700450202719, cl__1};
Point(197) = {-0.7038926908215014, 7.404728995439679e-05, -0.9922606836229148, cl__1};
Point(198) = {-0.6369478694972059, 6.70049059941939e-05, -0.9965727469780038, cl__1};
Point(199) = {-0.5360655014742696, 5.639239921057842e-05, -0.9991450274093039, cl__1};
Point(200) = {-8.845964945201365e-05, 9.305675989607061e-09, -1, cl__1};
Point(201) = {8.845964945201365e-05, -1, -0, cl__1};
Point(202) = {8.838401887634959e-05, -0.9991450274093039, -0.5360655014742695, cl__1};
Point(203) = {8.815647585110452e-05, -0.9965727469780038, -0.6369478694972058, cl__1};
Point(204) = {8.777503223829846e-05, -0.9922606836229148, -0.7038926908215013, cl__1};
Point(205) = {8.723625648256978e-05, -0.9861700450202719, -0.7548669211475908, cl__1};
Point(206) = {8.65350823849392e-05, -0.9782435598716852, -0.7961120936287274, cl__1};
Point(207) = {8.566450989194763e-05, -0.9684020954482496, -0.830595814088447, cl__1};
Point(208) = {8.461515834946444e-05, -0.9565396073083614, -0.8599764154626888, cl__1};
Point(209) = {8.337460674342719e-05, -0.9425156809902924, -0.8852780581634727, cl__1};
Point(210) = {8.192641133928776e-05, -0.9261444268296593, -0.9071775929626009, cl__1};
Point(211) = {8.02486118641932e-05, -0.9071775929626009, -0.9261444268296593, cl__1};
Point(212) = {7.831138669270015e-05, -0.8852780581634727, -0.9425156809902924, cl__1};
Point(213) = {7.607321224882872e-05, -0.8599764154626889, -0.9565396073083614, cl__1};
Point(214) = {7.347421455057393e-05, -0.8305958140884471, -0.9684020954482496, cl__1};
Point(215) = {7.04237967269059e-05, -0.7961120936287274, -0.9782435598716852, cl__1};
Point(216) = {6.677526322763672e-05, -0.7548669211475908, -0.9861700450202719, cl__1};
Point(217) = {6.226610068190464e-05, -0.7038926908215014, -0.9922606836229148, cl__1};
Point(218) = {5.634418525492978e-05, -0.6369478694972059, -0.9965727469780038, cl__1};
Point(219) = {4.742016634373179e-05, -0.5360655014742696, -0.9991450274093039, cl__1};
Point(220) = {7.82510958117314e-09, -8.845964945201365e-05, -1, cl__1};
Point(221) = {1, 0, -0, cl__1};
Point(222) = {0.9991450274093039, 0, -0.5360655014742695, cl__1};
Point(223) = {0.9965727469780038, 0, -0.6369478694972058, cl__1};
Point(224) = {0.9922606836229148, 0, -0.7038926908215013, cl__1};
Point(225) = {0.9861700450202719, 0, -0.7548669211475908, cl__1};
Point(226) = {0.9782435598716852, 0, -0.7961120936287274, cl__1};
Point(227) = {0.9684020954482496, 0, -0.830595814088447, cl__1};
Point(228) = {0.9565396073083614, 0, -0.8599764154626888, cl__1};
Point(229) = {0.9425156809902924, 0, -0.8852780581634727, cl__1};
Point(230) = {0.9261444268296593, 0, -0.9071775929626009, cl__1};
Point(231) = {0.9071775929626009, 0, -0.9261444268296593, cl__1};
Point(232) = {0.8852780581634727, 0, -0.9425156809902924, cl__1};
Point(233) = {0.8599764154626889, 0, -0.9565396073083614, cl__1};
Point(234) = {0.8305958140884471, 0, -0.9684020954482496, cl__1};
Point(235) = {0.7961120936287274, 0, -0.9782435598716852, cl__1};
Point(236) = {0.7548669211475908, 0, -0.9861700450202719, cl__1};
Point(237) = {0.7038926908215014, 0, -0.9922606836229148, cl__1};
Point(238) = {0.6369478694972059, 0, -0.9965727469780038, cl__1};
Point(239) = {0.5360655014742696, 0, -0.9991450274093039, cl__1};
Point(240) = {8.845964945201365e-05, 0, -1, cl__1};
Spline(1) = {1, 2, 3, 4, 5, 6, 7, 8
, 9, 10, 11, 12, 13, 14, 15, 16
, 17, 18, 19, 20};
Spline(2) = {21, 22, 23, 24, 25, 26, 27, 28
, 29, 30, 31, 32, 33, 34, 35, 36
, 37, 38, 39, 20};
Spline(3) = {41, 42, 43, 44, 45, 46, 47, 48
, 49, 50, 51, 52, 53, 54, 55, 56
, 57, 58, 59, 20};
Spline(4) = {61, 62, 63, 64, 65, 66, 67, 68
, 69, 70, 71, 72, 73, 74, 75, 76
, 77, 78, 79, 20};
Spline(5) = {1, 82, 83, 84, 85, 86, 87, 88
, 89, 90, 91, 92, 93, 94, 95, 96
, 97, 98, 99, 21};
Spline(6) = {21, 102, 103, 104, 105, 106, 107, 108
, 109, 110, 111, 112, 113, 114, 115, 116
, 117, 118, 119, 41};
Spline(7) = {41, 122, 123, 124, 125, 126, 127, 128
, 129, 130, 131, 132, 133, 134, 135, 136
, 137, 138, 139, 61};
Spline(8) = {61, 142, 143, 144, 145, 146, 147, 148
, 149, 150, 151, 152, 153, 154, 155, 156
, 157, 158, 159, 1};
Spline(9) = {1, 162, 163, 164, 165, 166, 167, 168
, 169, 170, 171, 172, 173, 174, 175, 176
, 177, 178, 179, 180};
Spline(10) = {21, 182, 183, 184, 185, 186, 187, 188
, 189, 190, 191, 192, 193, 194, 195, 196
, 197, 198, 199, 180};
Spline(11) = {41, 202, 203, 204, 205, 206, 207, 208
, 209, 210, 211, 212, 213, 214, 215, 216
, 217, 218, 219, 180};
Spline(12) = {61, 222, 223, 224, 225, 226, 227, 228
, 229, 230, 231, 232, 233, 234, 235, 236
, 237, 238, 239, 180};
Curve Loop(1) = {-1, 5, 2};
Surface(1) = {1};
Curve Loop(2) = {-2, 6, 3};
Surface(2) = {2};
Curve Loop(3) = {-3, 7, 4};
Surface(3) = {3};
Curve Loop(4) = {-4, 8, 1};
Surface(4) = {4};
Curve Loop(5) = {-9, 5, 10};
Surface(5) = {5};
Curve Loop(6) = {-10, 6, 11};
Surface(6) = {6};
Curve Loop(7) = {-11, 7, 12};
Surface(7) = {7};
Curve Loop(8) = {-12, 8, 9};
Surface(8) = {8};
Surface Loop(1) = {1, 5, 2, 6, 3, 7, 4, 8};
Volume(1) = {1};
Physical Volume(1) = {1};
