cl__1 = 1;
Point(1) = {-0.838626554624231, 0.5447068095862733, -3.597978086577408e-05, cl__1};
Point(2) = {-0.719157827819383, 0.7271027195079733, 0.4896842548515825, cl__1};
Point(3) = {-0.6946527135948348, 0.7601143776467865, 0.5818449764652515, cl__1};
Point(4) = {-0.6762065744600783, 0.7806016543788878, 0.6430022690458517, cl__1};
Point(5) = {-0.6598067545190553, 0.7946722721804308, 0.6895697647569207, cl__1};
Point(6) = {-0.6440225710754661, 0.8044241346125027, 0.7272493899199474, cl__1};
Point(7) = {-0.6281302634718348, 0.8108264414548119, 0.7587521902022747, cl__1};
Point(8) = {-0.6116735383956176, 0.8143871168776653, 0.785593131940245, cl__1};
Point(9) = {-0.594307763770882, 0.8153790357717181, 0.808707837278238, cl__1};
Point(10) = {-0.5757271084566321, 0.8139318287873505, 0.828714646852605, cl__1};
Point(11) = {-0.5556193966316439, 0.8100703946346284, 0.8460423942002442, cl__1};
Point(12) = {-0.5336272288215057, 0.803726099221882, 0.8609990670150662, cl__1};
Point(13) = {-0.5093019539686504, 0.7947279365683808, 0.8738114715488126, cl__1};
Point(14) = {-0.4820347678989672, 0.7827706317697496, 0.884649450812946, cl__1};
Point(15) = {-0.4509356772298601, 0.7673442155830332, 0.8936413166502324, cl__1};
Point(16) = {-0.4145904684667362, 0.7475815564387516, 0.9008840051450629, cl__1};
Point(17) = {-0.3704928987120257, 0.7218931728389471, 0.9064499144162869, cl__1};
Point(18) = {-0.3133959655173522, 0.6868987954464951, 0.9103915889673969, cl__1};
Point(19) = {-0.228223509270521, 0.6328249339057279, 0.9127451137966888, cl__1};
Point(20) = {0.2214504681790121, 0.3411662360260266, 0.913545454459842, cl__1};
Point(21) = {-0.4976407419901663, -0.7661063934971968, 0.4067366430758002, cl__1};
Point(22) = {-0.3784635487089366, -0.582589774215338, 0.8961090982650604, cl__1};
Point(23) = {-0.3548355456175781, -0.5462063369251434, 0.9872234866209665, cl__1};
Point(24) = {-0.3378597589100862, -0.5200667506146588, 1.046626749880693, cl__1};
Point(25) = {-0.3235367603224458, -0.4980124433175619, 1.090716740552493, cl__1};
Point(26) = {-0.3104553958585792, -0.4778704394986774, 1.125172088561595, cl__1};
Point(27) = {-0.2979188879988823, -0.4585678111524527, 1.152671650547651, cl__1};
Point(28) = {-0.2855071030809068, -0.4394576296544127, 1.174687256871352, cl__1};
Point(29) = {-0.2729232883680583, -0.4200829629835652, 1.192097412918196, cl__1};
Point(30) = {-0.2599249984576106, -0.4000705138631396, 1.205444844498189, cl__1};
Point(31) = {-0.2462847078918768, -0.379069971762231, 1.215057403086438, cl__1};
Point(32) = {-0.2317599707515271, -0.3567080678188941, 1.221105944691678, cl__1};
Point(33) = {-0.2160621970959754, -0.3325405031605074, 1.223626333661444, cl__1};
Point(34) = {-0.1988133792615655, -0.3059853277632501, 1.222513088643471, cl__1};
Point(35) = {-0.1794727480360619, -0.2762100278799264, 1.217477921063501, cl__1};
Point(36) = {-0.1571915579286505, -0.2419079703724791, 1.207943202568004, cl__1};
Point(37) = {-0.1304754775250776, -0.2007786598438279, 1.192774190471385, cl__1};
Point(38) = {-0.09620577863131125, -0.1480208815663295, 1.169484544465741, cl__1};
Point(39) = {-0.04543277862522972, -0.06985680314430603, 1.130801883854351, cl__1};
Point(40) = {-8.845964945201365e-05, 9.305675989607061e-09, 1, cl__1};
Point(41) = {0.8387145812666169, -0.5445712604437811, -3.597978086577408e-05, cl__1};
Point(42) = {0.9567492273750312, -0.361244047628559, 0.4896842548515825, cl__1};
Point(43) = {0.9769397498191126, -0.3254304608259633, 0.5818449764652515, cl__1};
Point(44) = {0.9881530877078109, -0.300246148044583, 0.6430022690458517, cl__1};
Point(45) = {0.9943368289767762, -0.2795411311807029, 0.6895697647569207, cl__1};
Point(46) = {0.9968255928176131, -0.2611551223038564, 0.7272493899199474, cl__1};
Point(47) = {0.9962104073064096, -0.2440327240881179, 0.7587521902022747, cl__1};
Point(48) = {0.992769693051575, -0.2275505004784928, 0.785593131940245, cl__1};
Point(49) = {0.9866125591763111, -0.21128262619045, 0.808707837278238, cl__1};
Point(50) = {0.9777330364408069, -0.1948969850387516, 0.828714646852605, cl__1};
Point(51) = {0.9660268976029703, -0.1780982630021837, 0.8460423942002442, cl__1};
Point(52) = {0.9512860748376578, -0.1605878754143797, 0.8609990670150662, cl__1};
Point(53) = {0.933171863582876, -0.1420255135381812, 0.8738114715488126, cl__1};
Point(54) = {0.9111577583703321, -0.1219791735755558, 0.884649450812946, cl__1};
Point(55) = {0.8844158861937905, -0.09984322929245287, 0.8936413166502324, cl__1};
Point(56) = {0.8515788704973909, -0.07467842655842533, 0.9008840051450629, cl__1};
Point(57) = {0.8101752668557769, -0.04484169892735973, 0.9064499144162869, cl__1};
Point(58) = {0.7549828974083468, -0.006914550549176335, 0.9103915889673969, cl__1};
Point(59) = {0.6709412078842274, 0.04890053905014224, 0.9127451137966888, cl__1};
Point(60) = {7.82510958117314e-09, -8.845964945201365e-05, 1, cl__1};
Point(61) = {0.4975525164928276, 0.7661636878050823, -0.4067366430758002, cl__1};
Point(62) = {0.6158788468156087, 0.9483702581658841, 0.08333130947638318, cl__1};
Point(63) = {0.6369469337628096, 0.9808122671104781, 0.1765381792476425, cl__1};
Point(64) = {0.6496313840891654, 1.00034460775328, 0.2394491908549273, cl__1};
Point(65) = {0.6578930201995994, 1.013066411743522, 0.2884937533255808, cl__1};
Point(66) = {0.6630860000801269, 1.021062899519341, 0.3293970852561351, cl__1};
Point(67) = {0.6658283488920206, 1.025285746373334, 0.3649024156472672, cl__1};
Point(68) = {0.6664346655843447, 1.02621939220482, 0.3965678391800584, cl__1};
Point(69) = {0.6650619633679887, 1.024105616156103, 0.4253860846536094, cl__1};
Point(70) = {0.6617676915048627, 1.019032882332795, 0.4520510941540757, cl__1};
Point(71) = {0.6565323168713333, 1.010971112362179, 0.4770926654160524, cl__1};
Point(72) = {0.6492627846156767, 0.9997770143383741, 0.5009558935595304, cl__1};
Point(73) = {0.6397805340268629, 0.9851756288785495, 0.524058492962137, cl__1};
Point(74) = {0.6277899754434511, 0.9667117878193874, 0.5468455822931786, cl__1};
Point(75) = {0.6128126405400296, 0.9436487145502913, 0.56986200011431, cl__1};
Point(76) = {0.5940469130492456, 0.9147520282667411, 0.5938791276149329, cl__1};
Point(77) = {0.570033783075935, 0.8777750507493141, 0.6201762901707261, cl__1};
Point(78) = {0.5376804470974138, 0.8279552822134677, 0.651344467958588, cl__1};
Point(79) = {0.4880559945472688, 0.75154032638302, 0.6947269187775716, cl__1};
Point(80) = {8.845964945201365e-05, 0, 1, cl__1};
Point(81) = {8.845964945201365e-05, 1, 0, cl__1};
Point(82) = {-1.104674266860719, 0.1334594620536592, 0.2180374825383897, cl__1};
Point(83) = {-1.152711247050054, 0.05476609060280541, 0.2590700382535763, cl__1};
Point(84) = {-1.18240341074309, 0.00112688139289141, 0.2862989501503295, cl__1};
Point(85) = {-1.202657727982092, -0.04124492242793953, 0.3070320374765358, cl__1};
Point(86) = {-1.216531657541887, -0.07716254910263121, 0.3238079604745957, cl__1};
Point(87) = {-1.225435372877238, -0.1089427692260042, 0.3378337531751464, cl__1};
Point(88) = {-1.230105045361539, -0.1379138932182101, 0.3497839203496537, cl__1};
Point(89) = {-1.230932487108716, -0.1649370707943644, 0.3600750255660738, cl__1};
Point(90) = {-1.228098566733168, -0.1906321232053131, 0.3689823688351929, cl__1};
Point(91) = {-1.221628637322211, -0.2154939006815298, 0.3766968751720566, cl__1};
Point(92) = {-1.211407700740253, -0.2399643026435099, 0.3833556641322932, cl__1};
Point(93) = {-1.197165597517099, -0.2644891880137184, 0.3890597088456471, cl__1};
Point(94) = {-1.178427162701854, -0.2895796180541475, 0.3938846174501917, cl__1};
Point(95) = {-1.154403326668884, -0.315900970965119, 0.3978875016527298, cl__1};
Point(96) = {-1.123756057071745, -0.344437686997047, 0.4011114936134561, cl__1};
Point(97) = {-1.084035882937376, -0.3768666687453711, 0.4035887795128829, cl__1};
Point(98) = {-1.030036709589925, -0.4166311779928729, 0.405342653686662, cl__1};
Point(99) = {-0.9467094813061688, -0.4735464414242292, 0.4063888943943386, cl__1};
Point(100) = {-1, 0.0001051968445189812, 0, cl__1};
Point(102) = {-0.04754476415142067, -1.057470836279815, 0.4063888943943386, cl__1};
Point(103) = {0.03834215333577357, -1.110444523988544, 0.405342653686662, cl__1};
Point(104) = {0.09663228263042639, -1.143601540511678, 0.4035887795128829, cl__1};
Point(105) = {0.1424132818923821, -1.166697669994224, 0.4011114936134561, cl__1};
Point(106) = {0.1809482367547662, -1.183088415840605, 0.3978875016527298, cl__1};
Point(107) = {0.2147653635674456, -1.194329423399453, 0.3938846174501917, cl__1};
Point(108) = {0.2453082200344267, -1.20124263812028, 0.3890597088456471, cl__1};
Point(109) = {0.2735056029189107, -1.204278277279772, 0.3833556641322933, cl__1};
Point(110) = {0.3000176569124027, -1.203662558318342, 0.3766968751720567, cl__1};
Point(111) = {0.3253615781642714, -1.199460937031415, 0.3689823688351929, cl__1};
Point(112) = {0.3499878358384768, -1.191598732756532, 0.3600750255660739, cl__1};
Point(113) = {0.3743381860856541, -1.179851510574368, 0.3497839203496537, cl__1};
Point(114) = {0.3989052979010067, -1.163801934768934, 0.3378337531751463, cl__1};
Point(115) = {0.4243165063511926, -1.14274180601899, 0.3238079604745958, cl__1};
Point(116) = {0.4514858555137392, -1.115458325789073, 0.3070320374765358, cl__1};
Point(117) = {0.4819562514247988, -1.079720921030579, 0.2862989501503295, cl__1};
Point(118) = {0.5188812163638935, -1.030778747869945, 0.2590700382535766, cl__1};
Point(119) = {0.5712327883336945, -0.9548873050828737, 0.21803748253839, cl__1};
Point(120) = {-0.0001164194458386823, -1, 0, cl__1};
Point(122) = {1.104674266860719, -0.1334594620536591, -0.2180374825383898, cl__1};
Point(123) = {1.152711247050053, -0.05476609060280574, -0.2590700382535761, cl__1};
Point(124) = {1.18240341074309, -0.001126881392891521, -0.2862989501503294, cl__1};
Point(125) = {1.202657727982092, 0.04124492242793942, -0.3070320374765358, cl__1};
Point(126) = {1.216531657541887, 0.07716254910263121, -0.3238079604745957, cl__1};
Point(127) = {1.225435372877238, 0.1089427692260039, -0.3378337531751462, cl__1};
Point(128) = {1.230105045361538, 0.1379138932182101, -0.3497839203496536, cl__1};
Point(129) = {1.230932487108716, 0.1649370707943644, -0.3600750255660738, cl__1};
Point(130) = {1.228098566733168, 0.1906321232053132, -0.368982368835193, cl__1};
Point(131) = {1.221628637322211, 0.2154939006815297, -0.3766968751720566, cl__1};
Point(132) = {1.211407700740253, 0.2399643026435099, -0.3833556641322932, cl__1};
Point(133) = {1.197165597517099, 0.2644891880137183, -0.3890597088456471, cl__1};
Point(134) = {1.178427162701854, 0.2895796180541477, -0.3938846174501917, cl__1};
Point(135) = {1.154403326668884, 0.3159009709651189, -0.3978875016527298, cl__1};
Point(136) = {1.123756057071745, 0.344437686997047, -0.4011114936134561, cl__1};
Point(137) = {1.084035882937376, 0.376866668745371, -0.4035887795128829, cl__1};
Point(138) = {1.030036709589925, 0.4166311779928725, -0.405342653686662, cl__1};
Point(139) = {0.9467094813061689, 0.4735464414242291, -0.4063888943943386, cl__1};
Point(140) = {1, -0.0001251008359778074, 0, cl__1};
Point(142) = {0.04754476415142023, 1.057470836279815, -0.4063888943943386, cl__1};
Point(143) = {-0.03834215333577312, 1.110444523988544, -0.405342653686662, cl__1};
Point(144) = {-0.09663228263042628, 1.143601540511678, -0.4035887795128829, cl__1};
Point(145) = {-0.1424132818923821, 1.166697669994224, -0.4011114936134561, cl__1};
Point(146) = {-0.1809482367547663, 1.183088415840605, -0.3978875016527298, cl__1};
Point(147) = {-0.2147653635674454, 1.194329423399453, -0.3938846174501917, cl__1};
Point(148) = {-0.2453082200344267, 1.20124263812028, -0.3890597088456471, cl__1};
Point(149) = {-0.2735056029189107, 1.204278277279772, -0.3833556641322933, cl__1};
Point(150) = {-0.3000176569124028, 1.203662558318342, -0.3766968751720566, cl__1};
Point(151) = {-0.3253615781642712, 1.199460937031415, -0.368982368835193, cl__1};
Point(152) = {-0.3499878358384768, 1.191598732756532, -0.360075025566074, cl__1};
Point(153) = {-0.3743381860856541, 1.179851510574368, -0.3497839203496537, cl__1};
Point(154) = {-0.3989052979010067, 1.163801934768934, -0.3378337531751463, cl__1};
Point(155) = {-0.4243165063511925, 1.14274180601899, -0.3238079604745958, cl__1};
Point(156) = {-0.451485855513739, 1.115458325789073, -0.3070320374765358, cl__1};
Point(157) = {-0.4819562514247987, 1.07972092103058, -0.2862989501503296, cl__1};
Point(158) = {-0.5188812163638934, 1.030778747869945, -0.2590700382535767, cl__1};
Point(159) = {-0.5712327883336943, 0.9548873050828739, -0.2180374825383901, cl__1};
Point(160) = {0.000132278028995325, 1, 0, cl__1};
Point(162) = {-0.9566612759930119, 0.3613794808802497, -0.4897561528898611, cl__1};
Point(163) = {-0.9768520248663028, 0.3255655454072473, -0.5819166894033575, cl__1};
Point(164) = {-0.9880657423314601, 0.3003806481293768, -0.6430736716897687, cl__1};
Point(165) = {-0.9942500197388916, 0.2796748056846569, -0.6896407291211532, cl__1};
Point(166) = {-0.996739481321602, 0.2612877223795456, -0.7273197838977824, cl__1};
Point(167) = {-0.996125162121468, 0.2441639901617436, -0.7588218759926431, cl__1};
Point(168) = {-0.9926854920816346, 0.2276801586020233, -0.7856619641111658, cl__1};
Point(169) = {-0.9865295926855174, 0.2114103833827937, -0.8087756602935673, cl__1};
Point(170) = {-0.9776515110565487, 0.1950225231216323, -0.8287812917996598, cl__1};
Point(171) = {-0.9659470418054141, 0.178221230146998, -0.8461076743022464, cl__1};
Point(172) = {-0.9512081467826199, 0.1607078740960309, -0.8610627712361423, cl__1};
Point(173) = {-0.9330961627464918, 0.1421420826038606, -0.8738733550747688, cl__1};
Point(174) = {-0.9110846438096382, 0.1220917601259131, -0.8847092201237038, cl__1};
Point(175) = {-0.8843458071192256, 0.09995114160407192, -0.893698604527579, cl__1};
Point(176) = {-0.8515124220968742, 0.07478074812228258, -0.9009383250378743, cl__1};
Point(177) = {-0.810113305545604, 0.04493711097800712, -0.9065005662258244, cl__1};
Point(178) = {-0.75492682902602, 0.00700088828669887, -0.9104374234569318, cl__1};
Point(179) = {-0.6708940198380338, -0.04882787583109782, -0.9127836888352342, cl__1};
Point(180) = {-0.2215988374010985, -0.3410698668791664, -0.9135454608253597, cl__1};
Point(182) = {-0.6159669968825654, -0.9483130128430615, -0.08333130947638318, cl__1};
Point(183) = {-0.637034856889046, -0.9807551691646825, -0.1765381792476425, cl__1};
Point(184) = {-0.6497189267814678, -1.00028775686417, -0.2394491908549273, cl__1};
Point(185) = {-0.657980025542282, -1.013009909813336, -0.2884937533255808, cl__1};
Point(186) = {-0.663172306104715, -1.021006851731634, -0.3293970852561351, cl__1};
Point(187) = {-0.6659137866485154, -1.025230262445521, -0.3649024156472672, cl__1};
Point(188) = {-0.6665190567669238, -1.026164587930055, -0.3965678391800584, cl__1};
Point(189) = {-0.6651451172826938, -1.024051615372489, -0.4253860846536094, cl__1};
Point(190) = {-0.6618494010575273, -1.018979819528858, -0.4520510941540757, cl__1};
Point(191) = {-0.656612353065647, -1.010919136249862, -0.4770926654160524, cl__1};
Point(192) = {-0.6493408887126413, -0.9997262929447455, -0.5009558935595304, cl__1};
Point(193) = {-0.6398564058738166, -0.9851263571250277, -0.524058492962137, cl__1};
Point(194) = {-0.6278632551722365, -0.9666641994070866, -0.5468455822931786, cl__1};
Point(195) = {-0.6128828779254274, -0.9436031018588876, -0.56986200011431, cl__1};
Point(196) = {-0.5941135115587884, -0.9147087786889483, -0.5938791276149329, cl__1};
Point(197) = {-0.5700958843586559, -0.8777347217047679, -0.6201762901707261, cl__1};
Point(198) = {-0.5377366421399791, -0.8279187887261258, -0.651344467958588, cl__1};
Point(199) = {-0.4881032891927425, -0.7515096128811318, -0.6947269187775716, cl__1};
Point(200) = {-8.845964945201365e-05, 9.305675989607061e-09, -1, cl__1};
Point(201) = {8.845964945201365e-05, -1, -0, cl__1};
Point(202) = {0.7192457792014023, -0.7269672862562826, -0.4897561528898611, cl__1};
Point(203) = {0.6947404385476446, -0.7599792930655025, -0.5819166894033575, cl__1};
Point(204) = {0.6762939198364291, -0.7804671542940941, -0.6430736716897687, cl__1};
Point(205) = {0.65989356375694, -0.7945385976764767, -0.6896407291211532, cl__1};
Point(206) = {0.6441086825714772, -0.8042915345368136, -0.7273197838977824, cl__1};
Point(207) = {0.6282155086567764, -0.8106951753811862, -0.7588218759926431, cl__1};
Point(208) = {0.611757739365558, -0.8142574587541348, -0.7856619641111658, cl__1};
Point(209) = {0.5943907302616757, -0.8152512785793744, -0.8087756602935673, cl__1};
Point(210) = {0.5758086338408903, -0.8138062907044699, -0.8287812917996598, cl__1};
Point(211) = {0.5556992524292002, -0.8099474274898142, -0.8461076743022464, cl__1};
Point(212) = {0.5337051568765436, -0.8036061005402308, -0.8610627712361423, cl__1};
Point(213) = {0.5093776548050346, -0.7946113675027013, -0.8738733550747688, cl__1};
Point(214) = {0.4821078824596611, -0.7826580452193923, -0.8847092201237038, cl__1};
Point(215) = {0.451005756304425, -0.7672363032714142, -0.893698604527579, cl__1};
Point(216) = {0.4146569168672529, -0.7474792348748944, -0.9009383250378743, cl__1};
Point(217) = {0.3705548600221987, -0.7217977607882997, -0.9065005662258244, cl__1};
Point(218) = {0.3134520338996789, -0.6868124577089726, -0.9104374234569318, cl__1};
Point(219) = {0.2282706973167146, -0.6327522706866835, -0.9127836888352342, cl__1};
Point(220) = {7.82510958117314e-09, -8.845964945201365e-05, -1, cl__1};
Point(221) = {1, 0, -0, cl__1};
Point(222) = {0.3783753986419798, 0.5826470195381606, -0.8961090982650604, cl__1};
Point(223) = {0.3547476224913417, 0.546263434870939, -0.9872234866209665, cl__1};
Point(224) = {0.3377722162177838, 0.5201236015037689, -1.046626749880693, cl__1};
Point(225) = {0.3234497549797632, 0.4980689452477487, -1.090716740552493, cl__1};
Point(226) = {0.3103690898339911, 0.4779264872863836, -1.125172088561595, cl__1};
Point(227) = {0.2978334502423874, 0.4586232950802662, -1.152671650547651, cl__1};
Point(228) = {0.2854227118983277, 0.4395124339291784, -1.174687256871352, cl__1};
Point(229) = {0.2728401344533533, 0.4201369637671787, -1.192097412918196, cl__1};
Point(230) = {0.259843288904946, 0.4001235766670768, -1.205444844498189, cl__1};
Point(231) = {0.246204671697563, 0.379121947874549, -1.215057403086438, cl__1};
Point(232) = {0.2316818666545625, 0.3567587892125228, -1.221105944691678, cl__1};
Point(233) = {0.2159863252490216, 0.3325897749140292, -1.223626333661444, cl__1};
Point(234) = {0.19874009953278, 0.3060329161755508, -1.222513088643471, cl__1};
Point(235) = {0.1794025106506641, 0.2762556405713301, -1.217477921063501, cl__1};
Point(236) = {0.1571249594191076, 0.2419512199502719, -1.207943202568004, cl__1};
Point(237) = {0.1304133762423567, 0.2008189888883742, -1.192774190471385, cl__1};
Point(238) = {0.09614958358874597, 0.1480573750536715, -1.169484544465741, cl__1};
Point(239) = {0.04538548397975598, 0.06988751664619426, -1.130801883854351, cl__1};
Point(240) = {8.845964945201365e-05, 0, -1, cl__1};
Spline(1) = {1, 2, 3, 4, 5, 6, 7, 8
, 9, 10, 11, 12, 13, 14, 15, 16
, 17, 18, 19, 20};
Spline(2) = {21, 22, 23, 24, 25, 26, 27, 28
, 29, 30, 31, 32, 33, 34, 35, 36
, 37, 38, 39, 20};
Spline(3) = {41, 42, 43, 44, 45, 46, 47, 48
, 49, 50, 51, 52, 53, 54, 55, 56
, 57, 58, 59, 20};
Spline(4) = {61, 62, 63, 64, 65, 66, 67, 68
, 69, 70, 71, 72, 73, 74, 75, 76
, 77, 78, 79, 20};
Spline(5) = {1, 82, 83, 84, 85, 86, 87, 88
, 89, 90, 91, 92, 93, 94, 95, 96
, 97, 98, 99, 21};
Spline(6) = {21, 102, 103, 104, 105, 106, 107, 108
, 109, 110, 111, 112, 113, 114, 115, 116
, 117, 118, 119, 41};
Spline(7) = {41, 122, 123, 124, 125, 126, 127, 128
, 129, 130, 131, 132, 133, 134, 135, 136
, 137, 138, 139, 61};
Spline(8) = {61, 142, 143, 144, 145, 146, 147, 148
, 149, 150, 151, 152, 153, 154, 155, 156
, 157, 158, 159, 1};
Spline(9) = {1, 162, 163, 164, 165, 166, 167, 168
, 169, 170, 171, 172, 173, 174, 175, 176
, 177, 178, 179, 180};
Spline(10) = {21, 182, 183, 184, 185, 186, 187, 188
, 189, 190, 191, 192, 193, 194, 195, 196
, 197, 198, 199, 180};
Spline(11) = {41, 202, 203, 204, 205, 206, 207, 208
, 209, 210, 211, 212, 213, 214, 215, 216
, 217, 218, 219, 180};
Spline(12) = {61, 222, 223, 224, 225, 226, 227, 228
, 229, 230, 231, 232, 233, 234, 235, 236
, 237, 238, 239, 180};
Curve Loop(1) = {-1, 5, 2};
Surface(1) = {1};
Curve Loop(2) = {-2, 6, 3};
Surface(2) = {2};
Curve Loop(3) = {-3, 7, 4};
Surface(3) = {3};
Curve Loop(4) = {-4, 8, 1};
Surface(4) = {4};
Curve Loop(5) = {-9, 5, 10};
Surface(5) = {5};
Curve Loop(6) = {-10, 6, 11};
Surface(6) = {6};
Curve Loop(7) = {-11, 7, 12};
Surface(7) = {7};
Curve Loop(8) = {-12, 8, 9};
Surface(8) = {8};
Surface Loop(1) = {1, 5, 2, 6, 3, 7, 4, 8};
Volume(1) = {1};
Physical Volume(1) = {1};
